<svg id="Layer_1" data-name="Layer 1" xmlns="http://www.w3.org/2000/svg" xmlns:xlink="http://www.w3.org/1999/xlink" viewBox="0 166.67 191.76 16.72"><defs xmlns="http://www.w3.org/2000/svg"><style>.cls-1{fill:none;}.cls-2{fill:#0a3149;}.cls-3{clip-path:url(#clip-path);}.cls-4{clip-path:url(#clip-path-2);}</style></defs><path class="cls-2" d="M330.48,358.86h1.27c2.86,0,3.39-2.12,3.39-3.48a2.49,2.49,0,0,0-2.74-2.74h-1.92ZM328.25,351h4.61c2.62,0,4.67,1.36,4.67,4.14a5.19,5.19,0,0,1-2.69,4.7l4,6.86-2.25.69-3.73-6.95h-2.38v6.68h-2.23Z" transform="translate(-328.25 -184.09)"/><path class="cls-2" d="M345.66,351v9.76c0,3.34,1.24,5.09,4.12,5.09s4-2.39,4-4.7V351h2.09v10.2c0,3.61-2.23,6.19-6.12,6.19-4.54,0-6.36-2.39-6.36-6.54V351Z" transform="translate(-328.25 -184.09)"/><path class="cls-2" d="M374.51,359.78v6.56a17.08,17.08,0,0,1-5.57,1.08c-5.74,0-8.68-4-8.68-8.38,0-4.07,3.17-8.29,9-8.29a8.25,8.25,0,0,1,5.15,1.57l-.92,1.33a7.54,7.54,0,0,0-4.21-1.29c-4.19,0-6.54,2.86-6.54,6.64,0,4.07,2.79,6.81,6.29,6.81a7.35,7.35,0,0,0,3.27-.57v-5.46Z" transform="translate(-328.25 -184.09)"/><path class="cls-2" d="M382.71,365.54h2.16c1.82,0,3.39-1,3.39-2.93,0-2.26-1.93-3.06-3.75-3.06h-1.8Zm0-7.6h1.11a3.39,3.39,0,0,0,3.61-3.07c0-1.42-1-2.23-2.83-2.23h-1.89Zm-2.23,9.21V351h5c2.4,0,4.19,1.2,4.19,3.29a4.11,4.11,0,0,1-3.29,4.1v.05c2.12.07,4.28,1.38,4.28,4s-2.3,4.68-5.64,4.68Z" transform="translate(-328.25 -184.09)"/><polygon class="cls-2" points="70.28 183.06 70.28 176.08 65.42 167.17 67.84 166.71 71.73 174.35 75.96 166.71 77.94 166.98 72.51 176.08 72.51 183.06 70.28 183.06"/><path class="cls-2" d="M426.53,353.52a5.11,5.11,0,0,0-2.79-1.16,2.22,2.22,0,0,0-2.51,2.19c0,1.15,1,2,3.07,3.5s3.5,3.09,3.5,5.16c0,2.55-2.42,4.21-5,4.21a6.76,6.76,0,0,1-4.54-1.68l1-1.33a5.88,5.88,0,0,0,3.5,1.4,2.52,2.52,0,0,0,2.81-2.65c0-2-2.42-3.34-3.73-4.3s-2.83-2-2.83-4.31,2.09-3.8,4.6-3.8a5.22,5.22,0,0,1,4,1.61Z" transform="translate(-328.25 -184.09)"/><path class="cls-2" d="M445.19,353.77a7.4,7.4,0,0,0-4.21-1.41c-4,0-6.33,2.86-6.33,6.64,0,4.07,2.81,6.81,6.33,6.81a7.13,7.13,0,0,0,4.07-1.2l.88,1.34a9.47,9.47,0,0,1-5.07,1.47c-5.75,0-8.68-3.93-8.68-8.38,0-4.05,3.18-8.29,9-8.29a7.85,7.85,0,0,1,5,1.64Z" transform="translate(-328.25 -184.09)"/><polygon class="cls-2" points="135.02 183.06 132.78 183.06 132.78 175.04 124.91 175.04 124.91 183.06 122.68 183.06 122.68 166.94 124.91 166.94 124.91 173.43 132.78 173.43 132.78 166.94 135.02 166.94 135.02 183.06"/><path class="cls-2" d="M482.38,358.81c0-3-1.61-6.45-5.59-6.45s-5.6,3.43-5.6,6.45,1.43,7,5.6,7,5.59-3.84,5.59-7m-13.65,0a8.06,8.06,0,0,1,16.12,0c0,4.81-3.09,8.61-8.06,8.61s-8.06-3.8-8.06-8.61" transform="translate(-328.25 -184.09)"/><path class="cls-2" d="M503.11,358.81c0-3-1.61-6.45-5.59-6.45s-5.6,3.43-5.6,6.45,1.43,7,5.6,7,5.59-3.84,5.59-7m-13.65,0a8.06,8.06,0,1,1,16.12,0c0,4.81-3.09,8.61-8.06,8.61s-8.06-3.8-8.06-8.61" transform="translate(-328.25 -184.09)"/><polygon class="cls-2" points="182.8 166.94 185.03 166.94 185.03 181.44 191.73 181.44 191.73 183.05 182.8 183.05 182.8 166.94"/></svg>